# Aspose.3D Wavefront OBJ Exporter
# Copyright 2004-2022 Aspose Pty Ltd.
# File created: 01/30/2022 00:17:59

mtllib material.lib

#
# object Steve
#

v -4 -4 1.99999948344173984
v 4 -4 1.99999948344173984
v -4 -3.99999999999999952 -2.00000051655826016
v 4 -3.99999999999999952 -2.00000051655826016
v -4 8 1.99999948344174256
v 4 8 1.99999948344174256
v -4 8 -2.0000005165582575
v 4 8 -2.0000005165582575
v -4 7.99999999999999824 3.99999996027890064
v 4 7.99999999999999824 3.99999996027890064
v -4 8 -4.00000003972109929
v 4 8 -4.00000003972109929
v -4 16 3.9999999602789024
v 4 16 3.9999999602789024
v -4 16 -4.00000003972109752
v 4 16 -4.00000003972109752
v 4 -4 1.99999948344173984
v 8 -4 1.99999948344173984
v 4 -3.99999999999999952 -2.00000051655826016
v 8 -3.99999999999999952 -2.00000051655826016
v 4 8 1.99999948344174256
v 8 8 1.99999948344174256
v 4 8 -2.0000005165582575
v 8 8 -2.0000005165582575
v -8 -4 1.99999948344173984
v -4 -4 1.99999948344173984
v -8 -3.99999999999999952 -2.00000051655826016
v -4 -3.99999999999999952 -2.00000051655826016
v -8 8 1.99999948344174256
v -4 8 1.99999948344174256
v -8 8 -2.0000005165582575
v -4 8 -2.0000005165582575
v 0 -16 1.99999900660457904
v 4 -16 1.99999900660457904
v 0 -16 -2.00000099339542103
v 4 -16 -2.00000099339542103
v 0 -4 1.9999990066045816
v 4 -4 1.9999990066045816
v 0 -3.99999999999999952 -2.00000099339541836
v 4 -3.99999999999999952 -2.00000099339541836
v -4 -16 1.99999900660457904
v 0 -16 1.99999900660457904
v -4 -16 -2.00000099339542103
v 0 -16 -2.00000099339542103
v -4 -4 1.9999990066045816
v 0 -4 1.9999990066045816
v -4 -3.99999999999999952 -2.00000099339541836
v 0 -3.99999999999999952 -2.00000099339541836
# 48 vertices

vn 0 -1 -2.220446049250313E-16
vn 0 -1 -2.220446049250313E-16
vn 0 -1 -2.220446049250313E-16
vn 0 -1 -2.220446049250313E-16
vn 0 1 2.220446049250313E-16
vn 0 1 2.220446049250313E-16
vn 0 1 2.220446049250313E-16
vn 0 1 2.220446049250313E-16
vn 0 -2.220446049250313E-16 1
vn 0 -2.220446049250313E-16 1
vn 0 -2.220446049250313E-16 1
vn 0 -2.220446049250313E-16 1
vn 1 0 0
vn 1 0 0
vn 1 0 0
vn 1 0 0
vn 0 2.220446049250313E-16 -1
vn 0 2.220446049250313E-16 -1
vn 0 2.220446049250313E-16 -1
vn 0 2.220446049250313E-16 -1
vn -1 0 0
vn -1 0 0
vn -1 0 0
vn -1 0 0
vn 0 -1 -2.220446049250313E-16
vn 0 -1 -2.220446049250313E-16
vn 0 -1 -2.220446049250313E-16
vn 0 -1 -2.220446049250313E-16
vn 0 1 2.220446049250313E-16
vn 0 1 2.220446049250313E-16
vn 0 1 2.220446049250313E-16
vn 0 1 2.220446049250313E-16
vn 0 -2.220446049250313E-16 1
vn 0 -2.220446049250313E-16 1
vn 0 -2.220446049250313E-16 1
vn 0 -2.220446049250313E-16 1
vn 1 0 0
vn 1 0 0
vn 1 0 0
vn 1 0 0
vn 0 2.220446049250313E-16 -1
vn 0 2.220446049250313E-16 -1
vn 0 2.220446049250313E-16 -1
vn 0 2.220446049250313E-16 -1
vn -1 0 0
vn -1 0 0
vn -1 0 0
vn -1 0 0
vn 0 -1 -2.220446049250313E-16
vn 0 -1 -2.220446049250313E-16
vn 0 -1 -2.220446049250313E-16
vn 0 -1 -2.220446049250313E-16
vn 0 1 2.220446049250313E-16
vn 0 1 2.220446049250313E-16
vn 0 1 2.220446049250313E-16
vn 0 1 2.220446049250313E-16
vn 0 -2.220446049250313E-16 1
vn 0 -2.220446049250313E-16 1
vn 0 -2.220446049250313E-16 1
vn 0 -2.220446049250313E-16 1
vn 1 0 0
vn 1 0 0
vn 1 0 0
vn 1 0 0
vn 0 2.220446049250313E-16 -1
vn 0 2.220446049250313E-16 -1
vn 0 2.220446049250313E-16 -1
vn 0 2.220446049250313E-16 -1
vn -1 0 0
vn -1 0 0
vn -1 0 0
vn -1 0 0
vn 0 -1 -2.220446049250313E-16
vn 0 -1 -2.220446049250313E-16
vn 0 -1 -2.220446049250313E-16
vn 0 -1 -2.220446049250313E-16
vn 0 1 2.220446049250313E-16
vn 0 1 2.220446049250313E-16
vn 0 1 2.220446049250313E-16
vn 0 1 2.220446049250313E-16
vn 0 -2.220446049250313E-16 1
vn 0 -2.220446049250313E-16 1
vn 0 -2.220446049250313E-16 1
vn 0 -2.220446049250313E-16 1
vn 1 0 0
vn 1 0 0
vn 1 0 0
vn 1 0 0
vn 0 2.220446049250313E-16 -1
vn 0 2.220446049250313E-16 -1
vn 0 2.220446049250313E-16 -1
vn 0 2.220446049250313E-16 -1
vn -1 0 0
vn -1 0 0
vn -1 0 0
vn -1 0 0
vn 0 -1 -2.220446049250313E-16
vn 0 -1 -2.220446049250313E-16
vn 0 -1 -2.220446049250313E-16
vn 0 -1 -2.220446049250313E-16
vn 0 1 2.220446049250313E-16
vn 0 1 2.220446049250313E-16
vn 0 1 2.220446049250313E-16
vn 0 1 2.220446049250313E-16
vn 0 -2.220446049250313E-16 1
vn 0 -2.220446049250313E-16 1
vn 0 -2.220446049250313E-16 1
vn 0 -2.220446049250313E-16 1
vn 1 0 0
vn 1 0 0
vn 1 0 0
vn 1 0 0
vn 0 2.220446049250313E-16 -1
vn 0 2.220446049250313E-16 -1
vn 0 2.220446049250313E-16 -1
vn 0 2.220446049250313E-16 -1
vn -1 0 0
vn -1 0 0
vn -1 0 0
vn -1 0 0
vn 0 -1 -2.220446049250313E-16
vn 0 -1 -2.220446049250313E-16
vn 0 -1 -2.220446049250313E-16
vn 0 -1 -2.220446049250313E-16
vn 0 1 2.220446049250313E-16
vn 0 1 2.220446049250313E-16
vn 0 1 2.220446049250313E-16
vn 0 1 2.220446049250313E-16
vn 0 -2.220446049250313E-16 1
vn 0 -2.220446049250313E-16 1
vn 0 -2.220446049250313E-16 1
vn 0 -2.220446049250313E-16 1
vn 1 0 0
vn 1 0 0
vn 1 0 0
vn 1 0 0
vn 0 2.220446049250313E-16 -1
vn 0 2.220446049250313E-16 -1
vn 0 2.220446049250313E-16 -1
vn 0 2.220446049250313E-16 -1
vn -1 0 0
vn -1 0 0
vn -1 0 0
vn -1 0 0
# 144 vertex normals

vt 0.4375 0.75 0
vt 0.4375 0.6875 0
vt 0.3125 0.6875 0
vt 0.3125 0.75 0
vt 0.5625 0.75 0
vt 0.3125 0.5 0
vt 0.625 0.6875 0
vt 0.5 0.6875 0
vt 0.4375 0.5 0
vt 0.4375 0.6875 0
vt 0.4375 0.75 0
vt 0.5 0.5 0
vt 0.4375 0.5 0
vt 0.625 0.5 0
vt 0.5 0.5 0
vt 0.56237518787384032 0.6875 0
vt 0.25 0.5 0
vt 0.3125 0.5 0
vt 0.4375 0.6875 0
vt 0.3125 0.6875 0
vt 0.3125 0.6875 0
vt 0.25 0.6875 0
vt 0.5 0.6875 0
vt 0.4375 0.6875 0
vt 0.375 1 0
vt 0.25 1 0
vt 0.125 0.875 0
vt 0.125 1 0
vt 0.375 0.875 0
vt 0.125 0.75 0
vt 0.5 0.875 0
vt 0.375 0.875 0
vt 0.25 0.75 0
vt 0.25 0.875 0
vt 0.25 1 0
vt 0 0.75 0
vt 0.125 0.75 0
vt 0.1250000149011612 0.875 0
vt 0 0.875 0
vt 0.25 0.875 0
vt 0.375 0.75 0
vt 0.25 0.75 0
vt 0.25 0.875 0
vt 0.125 0.875 0
vt 0.5 0.75 0
vt 0.375 0.75 0
vt 0.375 0.875 0
vt 0.25 0.875 0
vt 0.625 0.25 0
vt 0.625 0.1875 0
vt 0.5625 0.1875 0
vt 0.5625 0.25 0
vt 0.6875 0.25 0
vt 0.5625 0 0
vt 0.75 0.1875 0
vt 0.6875 0.1875 0
vt 0.625 0 0
vt 0.625 0.1875 0
vt 0.625 0.25 0
vt 0.5 0 0
vt 0.5625 0 0
vt 0.5625 0.1875 0
vt 0.5 0.1875 0
vt 0.6875 0.1875 0
vt 0.6875 0 0
vt 0.625 0 0
vt 0.625 0.1875 0
vt 0.5625 0.1875 0
vt 0.75 0 0
vt 0.6875 0 0
vt 0.6875 0.1875 0
vt 0.625 0.1875 0
vt 0.75 0.75 0
vt 0.75 0.6875 0
vt 0.6875 0.6875 0
vt 0.6875 0.75 0
vt 0.8125 0.75 0
vt 0.6875 0.5 0
vt 0.875 0.6875 0
vt 0.8125 0.6875 0
vt 0.75 0.5 0
vt 0.75 0.6875 0
vt 0.75 0.75 0
vt 0.625 0.5 0
vt 0.6875 0.5 0
vt 0.6875 0.6875 0
vt 0.625 0.6875 0
vt 0.8125 0.6875 0
vt 0.8125 0.5 0
vt 0.75 0.5 0
vt 0.75 0.6875 0
vt 0.6875 0.6875 0
vt 0.875 0.5 0
vt 0.8125 0.5 0
vt 0.8125 0.6875 0
vt 0.75 0.6875 0
vt 0.375 0.25 0
vt 0.375 0.1875 0
vt 0.3125 0.1875 0
vt 0.3125 0.25 0
vt 0.4375 0.25 0
vt 0.3125 0 0
vt 0.5 0.1875 0
vt 0.4375 0.1875 0
vt 0.375 0 0
vt 0.375 0.1875 0
vt 0.375 0.25 0
vt 0.25 0 0
vt 0.3125 0 0
vt 0.3125 0.1875 0
vt 0.25 0.1875 0
vt 0.4375 0.1875 0
vt 0.4375 0 0
vt 0.375 0 0
vt 0.375 0.1875 0
vt 0.3125 0.1875 0
vt 0.5 0 0
vt 0.4375 0 0
vt 0.4375 0.1875 0
vt 0.375 0.1875 0
vt 0.125 0.75 0
vt 0.125 0.6875 0
vt 0.0625 0.6875 0
vt 0.0625 0.75 0
vt 0.1875 0.75 0
vt 0.0625 0.5 0
vt 0.25 0.6875 0
vt 0.1875 0.6875 0
vt 0.125 0.5 0
vt 0.125 0.6875 0
vt 0.125 0.75 0
vt 0 0.5 0
vt 0.0625 0.5 0
vt 0.0625 0.6875 0
vt 0 0.6875 0
vt 0.1875 0.6875 0
vt 0.1875 0.5 0
vt 0.125 0.5 0
vt 0.125 0.6875 0
vt 0.0625 0.6875 0
vt 0.25 0.5 0
vt 0.1875 0.5 0
vt 0.1875 0.6875 0
vt 0.125 0.6875 0
# 144 texture coords

g Steve
usemtl 02 - Default
s 1
f 1/2/1 3/1/2 4/5/3 2/16/4
f 5/3/5 6/10/6 8/11/7 7/4/8
f 1/6/9 2/9/10 6/19/11 5/20/12
f 2/13/13 4/12/14 8/23/15 6/24/16
f 4/15/17 3/14/18 7/7/19 8/8/20
f 3/17/21 1/18/22 5/21/23 7/22/24
f 9/26/25 11/25/26 12/29/27 10/40/28
f 13/27/29 14/34/30 16/35/31 15/28/32
f 9/30/33 10/33/34 14/43/35 13/44/36
f 10/42/37 12/41/38 16/47/39 14/48/40
f 12/46/41 11/45/42 15/31/43 16/32/44
f 11/36/45 9/37/46 13/38/47 15/39/48
f 17/50/49 19/49/50 20/53/51 18/64/52
f 21/51/53 22/58/54 24/59/55 23/52/56
f 17/54/57 18/57/58 22/67/59 21/68/60
f 18/66/61 20/65/62 24/71/63 22/72/64
f 20/70/65 19/69/66 23/55/67 24/56/68
f 19/60/69 17/61/70 21/62/71 23/63/72
f 25/74/73 27/73/74 28/77/75 26/88/76
f 29/75/77 30/82/78 32/83/79 31/76/80
f 25/78/81 26/81/82 30/91/83 29/92/84
f 26/90/85 28/89/86 32/95/87 30/96/88
f 28/94/89 27/93/90 31/79/91 32/80/92
f 27/84/93 25/85/94 29/86/95 31/87/96
f 33/98/97 35/97/98 36/101/99 34/112/100
f 37/99/101 38/106/102 40/107/103 39/100/104
f 33/102/105 34/105/106 38/115/107 37/116/108
f 34/114/109 36/113/110 40/119/111 38/120/112
f 36/118/113 35/117/114 39/103/115 40/104/116
f 35/108/117 33/109/118 37/110/119 39/111/120
f 41/122/121 43/121/122 44/125/123 42/136/124
f 45/123/125 46/130/126 48/131/127 47/124/128
f 41/126/129 42/129/130 46/139/131 45/140/132
f 42/138/133 44/137/134 48/143/135 46/144/136
f 44/142/137 43/141/138 47/127/139 48/128/140
f 43/132/141 41/133/142 45/134/143 47/135/144
#36 polygons

