# Blender v2.91.0 OBJ File: ''
# www.blender.org
mtllib skybox_bottomless.mtl
o Cube.001
v 1.000000 1.000000 0.000000
v 0.500000 1.000000 0.500000
v 0.500000 1.000000 -0.500000
v 1.000000 1.000000 0.500000
v 1.000000 1.000000 1.000000
v 0.500000 1.000000 1.000000
v 0.000000 1.000000 1.000000
v -0.500000 1.000000 1.000000
v -1.000000 1.000000 0.500001
v -1.000000 1.000000 1.000001
v 1.000000 1.000000 -1.000000
v 1.000000 1.000000 -0.500000
v 0.500000 1.000000 -1.000000
v 0.000000 1.000000 -1.000000
v -0.500000 1.000000 0.500000
v -1.000000 1.000000 -0.500000
v -0.500000 1.000000 -0.500000
v -1.000000 1.000000 0.000000
v 0.000000 1.000000 -0.500000
v -0.250000 1.000000 0.000000
v -1.000000 1.000000 -1.000000
v -0.500000 1.000000 -1.000000
v 0.000000 1.000000 0.000000
v 0.000000 1.000000 0.500000
v -0.500000 0.500000 1.000000
v 0.000000 0.500000 1.000000
v -0.250000 -0.000000 1.000000
v 1.000000 -0.500000 1.000000
v 1.000000 -1.000000 1.000000
v 0.500000 -1.000000 1.000000
v 0.000000 -1.000000 1.000000
v -0.500000 -1.000000 1.000000
v -1.000000 -0.500000 1.000000
v -1.000000 -1.000000 1.000000
v 1.000000 -0.000000 1.000000
v 0.500000 -0.500000 1.000000
v 1.000000 0.500000 1.000000
v 0.500000 0.500000 1.000000
v -1.000000 -0.000000 1.000000
v -1.000000 0.500000 1.000000
v -0.500000 -0.500000 1.000000
v 0.000000 -0.000000 1.000000
v 0.000000 -0.500000 1.000000
v -0.500000 -1.000000 -1.000000
v -1.000000 -1.000000 -1.000000
v -1.000000 -1.000000 -0.500000
v -1.000000 -1.000000 0.500000
v 1.000000 -1.000000 0.499999
v 1.000000 -1.000000 -0.500001
v 0.499999 -1.000000 -1.000000
v -1.000000 -1.000000 -0.000000
v -0.000001 -1.000000 -1.000000
v 1.000000 -1.000000 -0.000001
v 0.999999 -1.000000 -1.000001
v -1.000000 -0.250000 -0.000000
v -1.000000 0.000000 0.000000
v -1.000000 -0.000000 0.500000
v -1.000000 0.500000 -1.000000
v -1.000000 0.500000 0.500000
v -1.000000 -0.500000 -1.000000
v -1.000000 -0.500000 -0.500000
v -1.000000 -0.500000 0.500000
v -1.000000 0.500000 -0.500000
v -1.000000 0.000000 -1.000000
v -1.000000 0.000000 -0.500000
v 1.000000 -0.000000 0.250000
v 1.000000 0.000000 0.000000
v 1.000000 -0.500000 -0.000000
v 1.000000 0.500000 0.500000
v 1.000000 0.500000 -1.000000
v 1.000000 0.500000 -0.500000
v 1.000000 -0.500000 -1.000001
v 1.000000 -0.500000 -0.500000
v 1.000000 0.000000 -1.000000
v 1.000000 0.500000 0.000000
v 1.000000 -0.500000 0.500000
v -0.500000 0.500000 -1.000000
v 0.500000 -0.500000 -1.000000
v 0.000000 -0.250000 -1.000000
v 0.000000 0.000000 -1.000000
v -0.500000 0.000000 -1.000000
v -0.500000 -0.500000 -1.000000
v 0.500000 0.500000 -1.000000
v 0.500000 0.000000 -1.000000
vt 1.000000 0.500000
vt 0.750000 0.750000
vt 0.750000 0.250000
vt 1.000000 0.750000
vt 1.000000 1.000000
vt 0.750000 1.000000
vt 0.500000 1.000000
vt 0.250000 1.000000
vt 0.000000 0.750000
vt 0.000000 1.000000
vt 1.000000 0.000000
vt 1.000000 0.250000
vt 0.750000 0.000000
vt 0.500000 0.000000
vt 0.250000 0.750000
vt 0.000000 0.250000
vt 0.250000 0.250000
vt 0.000000 0.500000
vt 0.500000 0.250000
vt 0.375000 0.500000
vt 0.000000 0.000000
vt 0.250000 0.000000
vt 0.500000 0.500000
vt 0.500000 0.750000
vt 0.750000 0.750000
vt 0.500000 0.750000
vt 0.625000 0.500000
vt 0.000000 0.250000
vt 0.000000 0.000000
vt 0.250000 0.000000
vt 0.500000 0.000000
vt 0.750000 0.000000
vt 1.000000 0.250000
vt 1.000000 0.000000
vt 0.000000 0.500000
vt 0.250000 0.250000
vt 0.000000 0.750000
vt 0.250000 1.000000
vt 0.000000 1.000000
vt 0.250000 0.750000
vt 1.000000 0.500000
vt 1.000000 0.750000
vt 0.750000 1.000000
vt 0.750000 0.250000
vt 0.500000 0.500000
vt 0.500000 0.250000
vt 1.000000 1.000000
vt 0.500000 0.375000
vt 0.500000 0.500000
vt 0.250000 0.500000
vt 1.000000 0.750000
vt 0.750000 1.000000
vt 0.500000 1.000000
vt 0.250000 1.000000
vt 0.000000 0.750000
vt 0.250000 0.750000
vt 0.000000 0.250000
vt 0.250000 0.000000
vt 0.000000 0.500000
vt 0.500000 0.000000
vt 0.750000 0.000000
vt 1.000000 0.250000
vt 1.000000 0.000000
vt 0.750000 0.250000
vt 0.250000 0.250000
vt 0.750000 0.750000
vt 1.000000 0.500000
vt 0.750000 0.500000
vt 1.000000 1.000000
vt 0.000000 0.000000
vt 0.625000 0.500000
vt 0.500000 0.500000
vt 0.500000 0.250000
vt 1.000000 0.750000
vt 0.750000 1.000000
vt 0.750000 0.750000
vt 0.250000 1.000000
vt 0.000000 0.750000
vt 0.500000 1.000000
vt 0.250000 0.750000
vt 0.000000 0.250000
vt 0.250000 0.250000
vt 0.000000 0.500000
vt 0.500000 0.750000
vt 0.000000 0.000000
vt 0.250000 0.000000
vt 0.750000 0.000000
vt 0.750000 0.250000
vt 0.500000 0.000000
vt 1.000000 0.250000
vt 1.000000 0.500000
vt 0.000000 1.000000
vt 1.000000 0.000000
vt 1.000000 0.250000
vt 1.000000 0.500000
vt 0.750000 0.000000
vt 1.000000 0.750000
vt 0.750000 1.000000
vt 0.500000 1.000000
vt 0.250000 1.000000
vt 0.000000 0.750000
vt 0.250000 0.750000
vt 0.000000 0.250000
vt 0.250000 0.000000
vt 0.000000 0.500000
vt 0.750000 0.250000
vt 0.500000 0.000000
vt 1.000000 0.000000
vt 0.500000 0.375000
vt 0.500000 0.500000
vt 0.250000 0.500000
vt 0.250000 0.250000
vt 0.750000 0.750000
vt 0.750000 0.500000
vt 1.000000 1.000000
vt 0.000000 1.000000
vt 0.000000 0.000000
vn -0.0000 -1.0000 -0.0000
vn 0.0000 0.0000 -1.0000
vn 0.0000 -0.7071 0.7071
vn 1.0000 0.0000 0.0000
vn -1.0000 -0.0000 0.0000
vn 0.0000 -0.0000 1.0000
usemtl up
s 1
f 1/1/1 2/2/1 3/3/1
f 4/4/1 5/5/1 6/6/1
f 7/7/1 8/8/1 9/9/1
f 8/8/1 10/10/1 9/9/1
f 4/4/1 6/6/1 7/7/1
f 11/11/1 12/12/1 13/13/1
f 12/12/1 1/1/1 13/13/1
f 13/13/1 3/3/1 14/14/1
f 4/4/1 2/2/1 1/1/1
f 9/9/1 15/15/1 7/7/1
f 16/16/1 17/17/1 18/18/1
f 17/17/1 19/19/1 20/20/1
f 16/16/1 21/21/1 22/22/1
f 16/16/1 22/22/1 14/14/1
f 3/3/1 19/19/1 14/14/1
f 3/3/1 2/2/1 23/23/1
f 2/2/1 24/24/1 23/23/1
f 20/20/1 23/23/1 24/24/1
f 15/15/1 24/24/1 7/7/1
f 18/18/1 20/20/1 15/15/1
f 13/13/1 1/1/1 3/3/1
f 4/4/1 7/7/1 2/2/1
f 9/9/1 18/18/1 15/15/1
f 16/16/1 14/14/1 17/17/1
f 17/17/1 14/14/1 19/19/1
f 3/3/1 23/23/1 19/19/1
f 2/2/1 7/7/1 24/24/1
f 20/20/1 19/19/1 23/23/1
f 15/15/1 20/20/1 24/24/1
f 18/18/1 17/17/1 20/20/1
usemtl right2
f 25/25/2 26/26/2 27/27/2
f 28/28/2 29/29/2 30/30/2
f 31/31/2 32/32/2 33/33/2
f 32/32/2 34/34/2 33/33/2
f 28/28/2 30/30/2 35/35/2
f 30/30/2 36/36/2 35/35/2
f 37/37/2 6/38/2 5/39/2
f 37/37/2 38/40/2 7/7/2
f 39/41/3 7/7/3 25/25/3
f 40/42/2 8/43/2 7/7/2
f 33/33/2 41/44/2 31/31/2
f 35/35/2 36/36/2 38/40/2
f 38/40/2 26/26/2 7/7/2
f 38/40/2 36/36/2 42/45/2
f 36/36/2 43/46/2 42/45/2
f 27/27/2 42/45/2 43/46/2
f 41/44/2 43/46/2 31/31/2
f 39/41/2 27/27/2 41/44/2
f 25/25/2 7/7/2 26/26/2
f 30/30/2 31/31/2 36/36/2
f 37/37/2 7/7/2 6/38/2
f 37/37/2 35/35/2 38/40/2
f 39/41/2 40/42/2 7/7/2
f 40/42/2 10/47/2 8/43/2
f 33/33/2 39/41/2 41/44/2
f 38/40/2 42/45/2 26/26/2
f 36/36/2 31/31/2 43/46/2
f 27/27/2 26/26/2 42/45/2
f 41/44/2 27/27/2 43/46/2
f 39/41/2 25/25/2 27/27/2
usemtl left
f 55/48/4 56/49/4 57/50/4
f 58/51/4 16/52/4 18/53/4
f 9/54/4 40/55/4 59/56/4
f 33/57/4 47/58/4 39/59/4
f 51/60/4 46/61/4 60/62/4
f 46/61/4 45/63/4 60/62/4
f 60/62/4 61/64/4 51/60/4
f 47/58/4 62/65/4 39/59/4
f 58/51/4 63/66/4 64/67/4
f 18/53/4 59/56/4 63/66/4
f 63/66/4 65/68/4 64/67/4
f 63/66/4 59/56/4 56/49/4
f 59/56/4 57/50/4 56/49/4
f 62/65/4 57/50/4 39/59/4
f 51/60/4 55/48/4 62/65/4
f 61/64/4 65/68/4 55/48/4
f 55/48/4 65/68/4 56/49/4
f 58/51/4 21/69/4 16/52/4
f 59/56/4 18/53/4 9/54/4
f 9/54/4 10/10/4 40/55/4
f 40/55/4 39/59/4 59/56/4
f 33/57/4 34/70/4 47/58/4
f 60/62/4 64/67/4 61/64/4
f 47/58/4 51/60/4 62/65/4
f 58/51/4 18/53/4 63/66/4
f 63/66/4 56/49/4 65/68/4
f 59/56/4 39/59/4 57/50/4
f 62/65/4 55/48/4 57/50/4
f 51/60/4 61/64/4 55/48/4
f 61/64/4 64/67/4 65/68/4
usemtl right
f 66/71/5 67/72/5 68/73/5
f 37/74/5 4/75/5 69/76/5
f 12/77/5 70/78/5 1/79/5
f 70/78/5 71/80/5 1/79/5
f 72/81/5 73/82/5 74/83/5
f 71/80/5 75/84/5 1/79/5
f 72/81/5 54/85/5 49/86/5
f 48/87/5 76/88/5 53/89/5
f 48/87/5 28/90/5 35/91/5
f 72/81/5 49/86/5 53/89/5
f 73/82/5 68/73/5 67/72/5
f 67/72/5 71/80/5 73/82/5
f 71/80/5 74/83/5 73/82/5
f 76/88/5 68/73/5 53/89/5
f 35/91/5 66/71/5 76/88/5
f 69/76/5 75/84/5 66/71/5
f 66/71/5 75/84/5 67/72/5
f 69/76/5 35/91/5 37/74/5
f 37/74/5 5/5/5 4/75/5
f 4/75/5 1/79/5 69/76/5
f 12/77/5 11/92/5 70/78/5
f 70/78/5 74/83/5 71/80/5
f 72/81/5 53/89/5 73/82/5
f 71/80/5 67/72/5 75/84/5
f 48/87/5 35/91/5 76/88/5
f 48/87/5 29/93/5 28/90/5
f 73/82/5 53/89/5 68/73/5
f 76/88/5 66/71/5 68/73/5
f 35/91/5 69/76/5 66/71/5
f 69/76/5 1/79/5 75/84/5
usemtl mid
f 72/94/6 74/95/6 50/96/6
f 70/97/6 13/98/6 14/99/6
f 22/100/6 58/101/6 77/102/6
f 60/103/6 44/104/6 64/105/6
f 50/96/6 78/106/6 52/107/6
f 50/96/6 54/108/6 72/94/6
f 79/109/6 80/110/6 81/111/6
f 44/104/6 82/112/6 64/105/6
f 70/97/6 83/113/6 74/95/6
f 14/99/6 77/102/6 83/113/6
f 83/113/6 84/114/6 74/95/6
f 83/113/6 77/102/6 80/110/6
f 77/102/6 81/111/6 80/110/6
f 82/112/6 81/111/6 64/105/6
f 52/107/6 79/109/6 82/112/6
f 78/106/6 84/114/6 79/109/6
f 70/97/6 11/115/6 13/98/6
f 77/102/6 14/99/6 22/100/6
f 22/100/6 21/116/6 58/101/6
f 58/101/6 64/105/6 77/102/6
f 60/103/6 45/117/6 44/104/6
f 50/96/6 74/95/6 78/106/6
f 79/109/6 84/114/6 80/110/6
f 44/104/6 52/107/6 82/112/6
f 70/97/6 14/99/6 83/113/6
f 83/113/6 80/110/6 84/114/6
f 77/102/6 64/105/6 81/111/6
f 82/112/6 79/109/6 81/111/6
f 52/107/6 78/106/6 79/109/6
f 78/106/6 74/95/6 84/114/6
