# Blender v2.79 (sub 0) OBJ File: 'SteveBatendo.blend'
# www.blender.org
mtllib player_000001.mtl
o Character_Cube.001
v 0.235142 0.495575 -0.155071
v 0.235142 0.495575 0.093071
v -0.013000 0.495575 0.093071
v -0.013000 0.495575 -0.155071
v 0.235142 1.240000 -0.155071
v 0.235141 1.240000 0.093071
v -0.013000 1.240000 0.093070
v -0.013000 1.240000 -0.155071
v 0.235142 0.852279 -0.155071
v -0.013000 0.852279 -0.155071
v -0.013000 0.493923 -0.144716
v -0.013000 0.497371 0.103402
v -0.261142 0.497371 0.103402
v -0.261141 0.493923 -0.144716
v -0.013000 1.238276 -0.155058
v -0.013000 1.241724 0.093059
v -0.261142 1.241724 0.093059
v -0.261142 1.238276 -0.155059
v -0.013000 0.850592 -0.149672
v -0.261141 0.850592 -0.149672
v -0.452098 1.533181 0.499766
v -0.480726 1.766606 0.578933
v -0.685451 1.533181 0.415382
v -0.213960 1.785734 -0.158775
v -0.242589 2.019159 -0.079608
v -0.475942 2.019159 -0.163992
v -0.447314 1.785734 -0.243159
v -0.381502 1.871837 0.304541
v -0.714079 1.766606 0.494549
v -0.351735 1.903406 0.222223
v 0.489396 1.260692 -0.207691
v 0.475645 1.228213 0.037931
v 0.227885 1.230015 0.024299
v 0.241636 1.262494 -0.221323
v 0.489396 1.998692 -0.110104
v 0.475645 1.966213 0.135518
v 0.227885 1.968016 0.121886
v 0.241636 2.000495 -0.123736
v 0.475645 1.535713 0.078592
v 0.227885 1.583641 0.071059
v 0.475645 1.627963 0.090791
v 0.232730 1.984425 -0.281530
v 0.237530 1.984425 0.214730
v -0.258730 1.984425 0.219530
v -0.263530 1.984425 -0.276730
v 0.232730 2.480708 -0.281530
v 0.237530 2.480708 0.214730
v -0.258730 2.480708 0.219530
v -0.263530 2.480708 -0.276730
v 0.489396 1.626459 -0.159325
v -0.564230 1.661740 0.080159
v 0.241636 1.629694 -0.172768
v -0.334896 1.657478 0.175658
v 0.235141 0.873308 0.093071
v -0.013000 0.867585 0.093071
v -0.261142 0.852107 0.098473
v -0.013000 0.882264 0.098054
v -0.253885 1.469064 -0.168631
v 0.227884 1.984425 0.106631
v 0.227885 1.539401 0.106631
v 0.241635 1.675860 -0.141130
v 0.227885 1.688147 0.106631
v -0.267624 1.820589 0.079157
v 0.241636 1.533892 -0.141130
v 0.227885 1.240000 0.106631
v -0.253885 1.240000 -0.168631
v -0.267636 1.240000 0.079129
v -0.253903 1.984425 -0.168600
v -0.253886 1.631651 -0.168629
v -0.267622 1.543843 0.079162
v 0.241636 1.240000 -0.141129
v 0.234617 1.369644 -0.014668
v 0.235262 1.846905 -0.026294
v 0.009515 1.240000 -0.154012
v 0.241581 1.984425 -0.141256
v -0.267534 1.984425 0.079365
vt 0.750000 0.601562
vt 0.687500 0.500000
vt 0.750000 0.578125
vt 0.750000 0.500000
vt 0.625000 0.101562
vt 0.562500 0.089844
vt 0.625000 0.078125
vt 0.317190 0.646357
vt 0.250000 0.687500
vt 0.249965 0.597802
vt 0.312500 0.687500
vt 0.437500 0.687500
vt 0.437500 0.750000
vt 0.433471 0.586412
vt 0.315247 0.590013
vt 0.437500 0.500000
vt 0.501425 0.600124
vt 0.616751 0.597848
vt 0.625000 0.687500
vt 0.549356 0.503851
vt 0.439333 0.624543
vt 0.500000 0.687500
vt 0.500000 0.500000
vt 0.495566 0.564939
vt 0.249182 0.555200
vt 0.468099 0.532654
vt 0.312500 0.500000
vt 0.471029 0.652863
vt 0.250000 0.500000
vt 0.375000 0.187500
vt 0.312500 0.250000
vt 0.312500 0.187500
vt 0.375000 0.095140
vt 0.437500 0.187500
vt 0.312878 0.096096
vt 0.250000 0.187500
vt 0.250000 0.089844
vt 0.500000 0.089844
vt 0.437500 0.000000
vt 0.500000 0.000000
vt 0.375000 0.000000
vt 0.437500 0.089844
vt 0.312500 0.000000
vt 0.250000 0.000000
vt 0.500000 0.187500
vt 0.125000 0.750000
vt 0.187500 0.687500
vt 0.187500 0.750000
vt 0.125000 0.687500
vt 0.062500 0.750000
vt 0.062500 0.687500
vt 0.124999 0.596966
vt 0.187500 0.687500
vt 0.063082 0.587001
vt 0.000000 0.589844
vt 0.000000 0.687500
vt 0.250000 0.589844
vt 0.187500 0.500000
vt 0.250000 0.500000
vt 0.125000 0.500000
vt 0.187500 0.589844
vt 0.000000 0.500000
vt 0.250000 0.687500
vt 0.750000 0.750000
vt 0.812500 0.687500
vt 0.812500 0.750000
vt 0.687500 0.687500
vt 0.750000 0.750000
vt 0.687500 0.750000
vt 0.812500 0.687500
vt 0.750000 0.687500
vt 0.625000 0.596191
vt 0.625000 0.687500
vt 0.812504 0.592215
vt 0.875000 0.500000
vt 0.874954 0.596189
vt 0.812500 0.500000
vt 0.375000 0.250000
vt 0.437500 0.187500
vt 0.437500 0.250000
vt 0.625000 0.500000
vt 0.625000 0.250000
vt 0.687500 0.187500
vt 0.687500 0.250000
vt 0.625000 0.250000
vt 0.562500 0.187500
vt 0.625000 0.187500
vt 0.687500 0.187500
vt 0.500000 0.088056
vt 0.500000 0.187500
vt 0.687596 0.092448
vt 0.750000 0.000000
vt 0.750644 0.088137
vt 0.687500 0.000000
vt 0.625000 0.000000
vt 0.562500 0.000000
vt 0.500000 0.000000
vt 0.750000 0.187500
vt 0.375000 1.000000
vt 0.250000 0.875000
vt 0.250000 1.000000
vt 0.250000 0.875000
vt 0.125000 1.000000
vt 0.125000 0.875000
vt 0.250000 0.750000
vt 0.375000 0.875000
vt 0.125000 0.750000
vt 0.000000 0.875000
vt 0.000000 0.750000
vt 0.500000 0.875000
vt 0.375000 0.750000
vt 0.500000 0.750000
vt 0.625000 0.554932
vt 0.625000 0.500000
vt 0.562500 0.750000
vt 0.437500 0.750000
vt 0.514757 0.687500
vt 0.437500 0.687500
vt 0.312500 0.750000
vt 0.562500 0.687500
vt 0.375000 0.250000
vt 0.125000 0.687500
vt 0.125000 0.750000
vt 0.062500 0.500000
vt 0.750000 0.687500
vt 0.875000 0.687500
vt 0.375000 0.187500
vt 0.625000 0.187500
vt 0.562500 0.250000
vt 0.375000 0.875000
vt 0.250000 1.000000
vn -0.1154 0.9407 0.3190
vn -0.0554 -0.1309 0.9898
vn -0.9985 -0.0000 -0.0553
vn -0.0000 1.0000 0.0000
vn -0.0554 0.0000 0.9985
vn 0.0554 0.0001 -0.9985
vn 0.0554 0.0000 -0.9985
vn 0.0551 -0.0004 -0.9985
vn 0.9985 0.0000 0.0554
vn -0.9985 -0.0000 -0.0554
vn -0.9985 0.0001 -0.0554
vn 0.9985 0.0002 0.0551
vn 1.0000 0.0000 0.0000
vn -0.0000 0.0000 1.0000
vn -1.0000 -0.0000 -0.0000
vn 0.0000 0.0000 -1.0000
vn -0.0000 -0.9999 0.0139
vn 0.0000 0.9999 -0.0139
vn -0.0000 0.0139 0.9999
vn 0.0000 -0.0139 -0.9999
vn -0.3199 -0.3393 0.8846
vn 0.3199 0.3393 -0.8846
vn 0.9404 0.0000 0.3401
vn -0.9404 -0.0000 -0.3401
vn 0.1154 -0.9407 -0.3190
vn -0.0000 -1.0000 -0.0000
vn -0.0000 -0.9914 -0.1311
vn 0.0000 0.9914 0.1311
vn 0.9985 -0.0073 0.0549
vn -0.9985 0.0073 -0.0549
vn 0.0554 0.1309 -0.9898
vn 1.0000 0.0000 -0.0097
vn 0.0097 0.0000 1.0000
vn -1.0000 -0.0000 0.0097
vn -0.0097 0.0000 -1.0000
vn -0.0550 -0.0012 0.9985
vn -0.0554 -0.0001 0.9985
vn 0.9985 0.0002 0.0552
vn -0.9985 0.0006 -0.0549
usemtl Material.002
s off
f 30/1/1 29/2/1 28/3/1
f 28/3/1 29/2/1 22/4/1
f 41/5/2 40/6/2 39/7/2
f 63/8/3 68/9/3 69/10/3
f 76/11/4 59/12/4 75/13/4
f 60/14/5 70/15/5 65/16/5
f 61/17/6 69/18/6 68/19/6
f 74/20/7 69/18/7 61/17/7
f 59/12/5 63/8/5 62/21/5
f 61/17/8 68/19/8 75/22/8
f 71/23/7 74/20/7 64/24/7
f 61/17/9 60/14/9 64/24/9
f 70/15/10 69/10/10 58/25/10
f 63/8/10 69/10/10 70/15/10
f 64/24/9 72/26/9 71/23/9
f 70/15/11 58/25/11 67/27/11
f 73/28/9 62/21/9 61/17/9
f 75/22/12 73/28/12 61/17/12
f 72/26/9 65/16/9 71/23/9
f 58/25/10 66/29/10 67/27/10
f 6/30/4 8/31/4 7/32/4
f 54/33/13 5/34/13 6/30/13
f 54/33/14 7/32/14 55/35/14
f 55/35/15 8/36/15 10/37/15
f 10/38/16 1/39/16 4/40/16
f 2/41/13 9/42/13 54/33/13
f 2/41/14 55/35/14 3/43/14
f 3/43/15 10/37/15 4/44/15
f 5/34/16 10/38/16 8/45/16
f 13/46/17 11/47/17 12/48/17
f 16/49/18 18/50/18 17/51/18
f 57/52/13 15/53/13 16/49/13
f 57/52/19 17/51/19 56/54/19
f 20/55/15 17/51/15 18/56/15
f 20/57/20 11/58/20 14/59/20
f 12/60/13 19/61/13 57/52/13
f 56/54/19 12/60/19 57/52/19
f 14/62/15 56/54/15 20/55/15
f 18/63/20 19/61/20 20/57/20
f 29/64/21 21/65/21 22/66/21
f 26/67/22 24/68/22 27/69/22
f 30/1/23 24/70/23 25/71/23
f 30/1/1 26/67/1 29/2/1
f 51/72/24 26/67/24 27/73/24
f 53/74/25 23/75/25 51/76/25
f 21/77/23 28/3/23 22/4/23
f 53/74/23 30/1/23 28/3/23
f 51/76/25 24/70/25 53/74/25
f 3/78/26 1/79/26 2/80/26
f 29/2/24 51/72/24 23/81/24
f 33/82/27 31/83/27 32/84/27
f 35/85/28 37/86/28 36/87/28
f 41/5/29 35/88/29 36/87/29
f 41/5/2 37/86/2 40/6/2
f 52/89/30 37/86/30 38/90/30
f 50/91/31 34/92/31 52/93/31
f 31/94/29 39/7/29 32/95/29
f 50/91/29 41/5/29 39/7/29
f 33/96/2 39/7/2 40/6/2
f 34/97/30 40/6/30 52/89/30
f 35/88/31 52/93/31 38/98/31
f 42/99/26 44/100/26 45/101/26
f 47/102/4 49/103/4 48/104/4
f 43/105/32 46/106/32 47/102/32
f 44/107/33 47/102/33 48/104/33
f 44/107/34 49/108/34 45/109/34
f 49/110/35 42/111/35 45/112/35
f 72/26/9 60/14/9 65/16/9
f 69/18/7 74/20/7 58/113/7
f 73/28/9 59/12/9 62/21/9
f 74/20/7 66/114/7 58/113/7
f 65/115/26 67/116/26 74/117/26
f 59/12/36 76/11/36 63/8/36
f 60/14/5 62/21/5 70/15/5
f 62/21/5 63/8/5 70/15/5
f 64/24/7 74/20/7 61/17/7
f 65/16/37 70/15/37 67/27/37
f 74/117/26 67/116/26 66/118/26
f 75/22/38 59/12/38 73/28/38
f 63/8/39 76/11/39 68/9/39
f 61/17/9 62/21/9 60/14/9
f 64/24/9 60/14/9 72/26/9
f 68/119/4 76/11/4 75/13/4
f 71/120/26 65/115/26 74/117/26
f 6/30/4 5/121/4 8/31/4
f 54/33/13 9/42/13 5/34/13
f 54/33/14 6/30/14 7/32/14
f 55/35/15 7/32/15 8/36/15
f 10/38/16 9/42/16 1/39/16
f 2/41/13 1/39/13 9/42/13
f 2/41/14 54/33/14 55/35/14
f 3/43/15 55/35/15 10/37/15
f 5/34/16 9/42/16 10/38/16
f 13/46/17 14/122/17 11/47/17
f 16/49/18 15/123/18 18/50/18
f 57/52/13 19/61/13 15/53/13
f 57/52/19 16/49/19 17/51/19
f 20/55/15 56/54/15 17/51/15
f 20/57/20 19/61/20 11/58/20
f 12/60/13 11/58/13 19/61/13
f 56/54/19 13/124/19 12/60/19
f 14/62/15 13/124/15 56/54/15
f 18/63/20 15/53/20 19/61/20
f 29/64/21 23/125/21 21/65/21
f 26/67/22 25/71/22 24/68/22
f 30/1/23 53/74/23 24/70/23
f 30/1/1 25/71/1 26/67/1
f 51/72/24 29/2/24 26/67/24
f 53/74/25 21/77/25 23/75/25
f 21/77/23 53/74/23 28/3/23
f 51/76/25 27/126/25 24/70/25
f 3/78/26 4/127/26 1/79/26
f 33/82/27 34/128/27 31/83/27
f 35/85/28 38/129/28 37/86/28
f 41/5/29 50/91/29 35/88/29
f 41/5/2 36/87/2 37/86/2
f 52/89/30 40/6/30 37/86/30
f 50/91/31 31/94/31 34/92/31
f 31/94/29 50/91/29 39/7/29
f 33/96/2 32/95/2 39/7/2
f 34/97/30 33/96/30 40/6/30
f 35/88/31 50/91/31 52/93/31
f 42/99/26 43/130/26 44/100/26
f 47/102/4 46/131/4 49/103/4
f 43/105/32 42/111/32 46/106/32
f 44/107/33 43/105/33 47/102/33
f 44/107/34 48/104/34 49/108/34
f 49/110/35 46/106/35 42/111/35
