# Blender v2.79 (sub 0) OBJ File: 'SteveAnim.blend'
# www.blender.org
mtllib player_000001.mtl
o Character_Cube.001
v 0.235142 -0.000847 -0.155071
v 0.235142 -0.000847 0.093071
v -0.013000 0.743578 0.093070
v -0.013000 0.743578 -0.155071
v 0.235142 0.743578 -0.155070
v -0.013000 -0.000847 -0.155071
v -0.013000 -0.000847 -0.155071
v -0.013000 -0.000847 0.093071
v -0.013001 0.743578 0.093071
v -0.261142 0.743578 0.093071
v -0.261142 0.743578 -0.155071
v -0.013000 0.743578 -0.155070
v -0.261141 -0.000847 -0.155071
v -0.122231 0.927064 0.363479
v -0.440871 1.322885 -0.234465
v -0.331408 1.530944 -0.155068
v -0.487946 1.539907 0.037260
v 0.143769 1.126160 0.250548
v -0.012769 1.135123 0.442876
v 0.460449 1.470199 -0.187968
v 0.500444 1.501211 0.054957
v 0.255559 1.503847 0.094939
v 0.215564 1.472835 -0.147987
v 0.507694 0.762665 0.148047
v 0.262809 0.765301 0.188028
v 0.235142 1.488003 -0.279142
v 0.235142 1.488003 0.217142
v -0.261142 1.488003 0.217141
v -0.261141 1.488003 -0.279142
v 0.235142 1.984286 -0.279141
v 0.235141 1.984286 0.217142
v -0.261142 1.984286 0.217141
v -0.261142 1.984286 -0.279142
v 0.467698 0.731653 -0.094879
v -0.597409 1.331849 -0.042137
v 0.222813 0.734289 -0.054897
v 0.034306 0.918101 0.171152
v 0.235141 0.743578 0.093071
v -0.013000 -0.000847 0.093070
v -0.261142 -0.000847 0.093071
v 0.235141 1.488003 0.093071
v 0.235141 1.127402 0.093071
v 0.235142 0.743578 0.093071
v -0.261141 0.743578 -0.155071
v -0.261142 0.743578 0.093071
v -0.261142 1.488003 -0.155071
v 0.235142 0.743578 -0.155071
v 0.235142 1.488003 -0.155070
v -0.261142 1.488003 0.093071
vt 0.437500 0.000000
vt 0.500000 0.000000
vt 0.437500 0.187500
vt 0.187500 0.500000
vt 0.250000 0.500000
vt 0.187500 0.687500
vt 0.312500 0.687500
vt 0.250000 0.687500
vt 0.250000 0.500000
vt 0.437500 0.687500
vt 0.437500 0.750000
vt 0.436798 0.608054
vt 0.312500 0.500000
vt 0.437500 0.500000
vt 0.500000 0.687500
vt 0.625000 0.500000
vt 0.625000 0.687500
vt 0.500000 0.500000
vt 0.375000 0.250000
vt 0.312500 0.187500
vt 0.375000 0.187500
vt 0.312500 0.000000
vt 0.250000 0.187500
vt 0.250000 0.000000
vt 0.375000 0.000000
vt 0.125000 0.750000
vt 0.187500 0.687500
vt 0.187500 0.750000
vt 0.500000 0.187500
vt 0.125000 0.750000
vt 0.062500 0.687500
vt 0.125000 0.687500
vt 0.062500 0.500000
vt 0.000000 0.687500
vt 0.000000 0.500000
vt 0.125000 0.500000
vt 0.750000 0.687500
vt 0.812500 0.750000
vt 0.750000 0.750000
vt 0.250000 0.687500
vt 0.750000 0.687500
vt 0.687500 0.750000
vt 0.687500 0.687500
vt 0.750000 0.500000
vt 0.812500 0.687500
vt 0.687500 0.500000
vt 0.625000 0.250000
vt 0.687500 0.187500
vt 0.687500 0.250000
vt 0.625000 0.687500
vt 0.875000 0.687500
vt 0.812500 0.500000
vt 0.875000 0.500000
vt 0.625000 0.500000
vt 0.625000 0.250000
vt 0.562500 0.187500
vt 0.625000 0.187500
vt 0.625000 0.000000
vt 0.687500 0.187500
vt 0.562500 0.000000
vt 0.500000 0.187500
vt 0.750000 0.187500
vt 0.687500 0.000000
vt 0.750000 0.000000
vt 0.375000 0.250000
vt 0.437500 0.187500
vt 0.437500 0.250000
vt 0.375000 1.000000
vt 0.250000 0.875000
vt 0.250000 1.000000
vt 0.250000 0.875000
vt 0.125000 1.000000
vt 0.125000 0.875000
vt 0.250000 0.750000
vt 0.375000 0.875000
vt 0.125000 0.750000
vt 0.000000 0.875000
vt 0.000000 0.750000
vt 0.500000 0.875000
vt 0.375000 0.750000
vt 0.500000 0.750000
vt 0.562500 0.750000
vt 0.437500 0.750000
vt 0.437500 0.687500
vt 0.312500 0.750000
vt 0.562500 0.687500
vt 0.312500 0.250000
vt 0.125000 0.687500
vt 0.062500 0.750000
vt 0.812500 0.687500
vt 0.750000 0.750000
vt 0.625000 0.187500
vt 0.562500 0.250000
vt 0.500000 0.000000
vt 0.375000 0.187500
vt 0.375000 0.875000
vt 0.250000 1.000000
vn 0.0000 0.0000 -1.0000
vn -1.0000 -0.0000 -0.0000
vn 0.0000 1.0000 0.0000
vn -0.0000 -0.0000 1.0000
vn 1.0000 0.0000 0.0000
vn 0.0000 -1.0000 0.0000
vn 0.6383 -0.5438 0.5449
vn -0.6383 0.5438 -0.5449
vn 0.6308 -0.0361 -0.7751
vn 0.4411 0.8385 0.3200
vn 0.0097 -0.9921 0.1250
vn -0.6308 0.0361 0.7751
vn -0.4411 -0.8385 -0.3200
vn -0.0097 0.9921 -0.1250
vn 0.9869 -0.0106 -0.1611
vn 0.1612 0.1250 0.9790
vn -0.9869 0.0106 0.1611
vn -0.1612 -0.1250 -0.9790
usemtl Material.002
s off
f 1/1/1 6/2/1 5/3/1
f 7/4/1 13/5/1 12/6/1
f 49/7/2 46/8/2 44/9/2
f 49/7/3 41/10/3 48/11/3
f 42/12/4 45/13/4 43/14/4
f 48/15/1 44/16/1 46/17/1
f 41/10/4 49/7/4 42/12/4
f 47/18/1 44/16/1 48/15/1
f 49/7/2 44/9/2 45/13/2
f 5/19/3 3/20/3 38/21/3
f 39/22/2 4/23/2 6/24/2
f 38/21/4 3/20/4 39/22/4
f 2/25/5 5/3/5 38/21/5
f 40/26/6 7/27/6 8/28/6
f 2/25/4 38/21/4 39/22/4
f 5/3/1 6/2/1 4/29/1
f 12/30/3 10/31/3 9/32/3
f 40/33/2 11/34/2 13/35/2
f 9/32/4 10/31/4 40/33/4
f 8/36/5 12/6/5 9/32/5
f 14/37/7 18/38/7 19/39/7
f 9/32/4 40/33/4 8/36/4
f 12/6/1 13/5/1 11/40/1
f 16/41/8 35/42/8 17/43/8
f 18/44/9 15/45/9 16/41/9
f 19/46/10 16/41/10 17/43/10
f 25/47/11 34/48/11 24/49/11
f 19/46/12 17/43/12 35/50/12
f 35/51/13 37/52/13 14/53/13
f 19/46/12 35/50/12 14/54/12
f 35/51/13 15/45/13 37/52/13
f 20/55/14 22/56/14 21/57/14
f 24/58/15 20/59/15 21/57/15
f 25/60/16 21/57/16 22/56/16
f 23/61/17 25/60/17 22/56/17
f 23/62/18 34/63/18 36/64/18
f 39/65/6 1/66/6 2/67/6
f 26/68/6 28/69/6 29/70/6
f 31/71/3 33/72/3 32/73/3
f 27/74/5 30/75/5 31/71/5
f 28/76/4 31/71/4 32/73/4
f 28/76/2 33/77/2 29/78/2
f 33/79/1 26/80/1 29/81/1
f 47/18/5 42/12/5 43/14/5
f 48/15/5 41/10/5 42/12/5
f 43/82/6 45/83/6 44/84/6
f 42/12/4 49/7/4 45/13/4
f 48/15/5 42/12/5 47/18/5
f 46/85/3 49/7/3 48/11/3
f 47/86/6 43/82/6 44/84/6
f 5/19/3 4/87/3 3/20/3
f 39/22/2 3/20/2 4/23/2
f 2/25/5 1/1/5 5/3/5
f 40/26/6 13/88/6 7/27/6
f 12/30/3 11/89/3 10/31/3
f 40/33/2 10/31/2 11/34/2
f 8/36/5 7/4/5 12/6/5
f 14/37/7 37/90/7 18/38/7
f 16/41/8 15/91/8 35/42/8
f 18/44/9 37/52/9 15/45/9
f 19/46/10 18/44/10 16/41/10
f 25/47/11 36/92/11 34/48/11
f 20/55/14 23/93/14 22/56/14
f 24/58/15 34/63/15 20/59/15
f 25/60/16 24/58/16 21/57/16
f 23/61/17 36/94/17 25/60/17
f 23/62/18 20/59/18 34/63/18
f 39/65/6 6/95/6 1/66/6
f 26/68/6 27/96/6 28/69/6
f 31/71/3 30/97/3 33/72/3
f 27/74/5 26/80/5 30/75/5
f 28/76/4 27/74/4 31/71/4
f 28/76/2 32/73/2 33/77/2
f 33/79/1 30/75/1 26/80/1
