# Blender v2.79 (sub 0) OBJ File: 'SteveBatendo.blend'
# www.blender.org
mtllib player_000001.mtl
o Character_Cube.001
v 0.235142 0.495575 -0.155071
v 0.235142 0.495575 0.093071
v -0.013000 0.495575 0.093071
v -0.013000 0.495575 -0.155071
v 0.235142 1.240000 -0.155071
v 0.235141 1.240000 0.093071
v -0.013000 1.240000 0.093070
v -0.013000 1.240000 -0.155071
v 0.235142 0.852279 -0.155071
v -0.013000 0.852279 -0.155071
v -0.013000 0.493923 -0.144716
v -0.013000 0.497371 0.103402
v -0.261142 0.497371 0.103402
v -0.261141 0.493923 -0.144716
v -0.013000 1.238276 -0.155058
v -0.013000 1.241724 0.093059
v -0.261142 1.241724 0.093059
v -0.261142 1.238276 -0.155059
v -0.013000 0.850592 -0.149672
v -0.261141 0.850592 -0.149672
v -0.387206 1.822411 0.579588
v -0.391939 2.068253 0.546218
v -0.630026 1.810974 0.529771
v -0.234525 1.727300 -0.142777
v -0.239259 1.973142 -0.176147
v -0.482079 1.961705 -0.225964
v -0.477346 1.715863 -0.192594
v -0.328322 2.028623 0.245233
v -0.634759 2.056816 0.496401
v -0.309237 2.016735 0.154937
v 0.522205 1.270109 -0.198502
v 0.483556 1.229403 0.043208
v 0.238610 1.226769 0.003598
v 0.277259 1.267475 -0.238112
v 0.495014 2.004407 -0.079188
v 0.456365 1.963701 0.162522
v 0.211420 1.961067 0.122912
v 0.250068 2.001773 -0.118798
v 0.472227 1.535361 0.092922
v 0.225582 1.578620 0.060769
v 0.468828 1.627148 0.107836
v 0.240927 1.984425 -0.273218
v 0.229218 1.984425 0.222927
v -0.266927 1.984425 0.211218
v -0.255218 1.984425 -0.284927
v 0.240927 2.480708 -0.273218
v 0.229218 2.480708 0.222927
v -0.266927 2.480708 0.211218
v -0.255218 2.480708 -0.284927
v 0.508729 1.634041 -0.139368
v -0.552306 1.762559 0.162059
v 0.263730 1.632833 -0.178746
v -0.312063 1.775601 0.224068
v 0.235141 0.873308 0.093071
v -0.013000 0.867585 0.093071
v -0.261142 0.852107 0.098473
v -0.013000 0.882264 0.098054
v -0.249174 1.469064 -0.176567
v 0.223173 1.984425 0.114567
v 0.223174 1.539401 0.114567
v 0.245158 1.675860 -0.132600
v 0.223173 1.688147 0.114567
v -0.271147 1.820589 0.070627
v 0.245158 1.533892 -0.132599
v 0.223174 1.240000 0.114567
v -0.249174 1.240000 -0.176567
v -0.271158 1.240000 0.070599
v -0.249193 1.984425 -0.176536
v -0.249175 1.631651 -0.176566
v -0.271145 1.543843 0.070632
v 0.245158 1.240000 -0.132599
v 0.233937 1.369644 -0.006441
v 0.234968 1.846905 -0.018039
v 0.013595 1.240000 -0.153195
v 0.245107 1.984425 -0.132727
v -0.271064 1.984425 0.070838
vt 0.750000 0.601562
vt 0.687500 0.500000
vt 0.750000 0.578125
vt 0.750000 0.500000
vt 0.625000 0.101562
vt 0.562500 0.089844
vt 0.625000 0.078125
vt 0.317190 0.646357
vt 0.250000 0.687500
vt 0.249965 0.597802
vt 0.312500 0.687500
vt 0.437500 0.687500
vt 0.437500 0.750000
vt 0.433471 0.586412
vt 0.315247 0.590013
vt 0.437500 0.500000
vt 0.501425 0.600124
vt 0.616751 0.597848
vt 0.625000 0.687500
vt 0.549356 0.503851
vt 0.439333 0.624543
vt 0.500000 0.687500
vt 0.500000 0.500000
vt 0.495566 0.564939
vt 0.249182 0.555200
vt 0.468099 0.532654
vt 0.312500 0.500000
vt 0.471029 0.652863
vt 0.250000 0.500000
vt 0.375000 0.187500
vt 0.312500 0.250000
vt 0.312500 0.187500
vt 0.375000 0.095140
vt 0.437500 0.187500
vt 0.312878 0.096096
vt 0.250000 0.187500
vt 0.250000 0.089844
vt 0.500000 0.089844
vt 0.437500 0.000000
vt 0.500000 0.000000
vt 0.375000 0.000000
vt 0.437500 0.089844
vt 0.312500 0.000000
vt 0.250000 0.000000
vt 0.500000 0.187500
vt 0.125000 0.750000
vt 0.187500 0.687500
vt 0.187500 0.750000
vt 0.125000 0.687500
vt 0.062500 0.750000
vt 0.062500 0.687500
vt 0.124999 0.596966
vt 0.187500 0.687500
vt 0.063082 0.587001
vt 0.000000 0.589844
vt 0.000000 0.687500
vt 0.250000 0.589844
vt 0.187500 0.500000
vt 0.250000 0.500000
vt 0.125000 0.500000
vt 0.187500 0.589844
vt 0.000000 0.500000
vt 0.250000 0.687500
vt 0.750000 0.750000
vt 0.812500 0.687500
vt 0.812500 0.750000
vt 0.687500 0.687500
vt 0.750000 0.750000
vt 0.687500 0.750000
vt 0.812500 0.687500
vt 0.750000 0.687500
vt 0.625000 0.596191
vt 0.625000 0.687500
vt 0.812504 0.592215
vt 0.875000 0.500000
vt 0.874954 0.596189
vt 0.812500 0.500000
vt 0.375000 0.250000
vt 0.437500 0.187500
vt 0.437500 0.250000
vt 0.625000 0.500000
vt 0.625000 0.250000
vt 0.687500 0.187500
vt 0.687500 0.250000
vt 0.625000 0.250000
vt 0.562500 0.187500
vt 0.625000 0.187500
vt 0.687500 0.187500
vt 0.500000 0.088056
vt 0.500000 0.187500
vt 0.687596 0.092448
vt 0.750000 0.000000
vt 0.750644 0.088137
vt 0.687500 0.000000
vt 0.625000 0.000000
vt 0.562500 0.000000
vt 0.500000 0.000000
vt 0.750000 0.187500
vt 0.375000 1.000000
vt 0.250000 0.875000
vt 0.250000 1.000000
vt 0.250000 0.875000
vt 0.125000 1.000000
vt 0.125000 0.875000
vt 0.250000 0.750000
vt 0.375000 0.875000
vt 0.125000 0.750000
vt 0.000000 0.875000
vt 0.000000 0.750000
vt 0.500000 0.875000
vt 0.375000 0.750000
vt 0.500000 0.750000
vt 0.625000 0.554932
vt 0.625000 0.500000
vt 0.562500 0.750000
vt 0.437500 0.750000
vt 0.514757 0.687500
vt 0.437500 0.687500
vt 0.312500 0.750000
vt 0.562500 0.687500
vt 0.375000 0.250000
vt 0.125000 0.687500
vt 0.125000 0.750000
vt 0.062500 0.500000
vt 0.750000 0.687500
vt 0.875000 0.687500
vt 0.375000 0.187500
vt 0.625000 0.187500
vt 0.562500 0.250000
vt 0.375000 0.875000
vt 0.250000 1.000000
vn -0.0191 0.9907 -0.1345
vn -0.1558 -0.1640 0.9741
vn -0.9961 -0.0000 -0.0885
vn -0.0000 1.0000 0.0000
vn -0.0885 0.0000 0.9961
vn 0.0886 0.0001 -0.9961
vn 0.0886 0.0000 -0.9961
vn 0.0883 -0.0004 -0.9961
vn 0.9961 0.0000 0.0886
vn -0.9961 0.0001 -0.0885
vn 0.9961 0.0002 0.0883
vn -0.9961 0.0000 -0.0886
vn 1.0000 0.0000 0.0000
vn -0.0000 0.0000 1.0000
vn -1.0000 -0.0000 -0.0000
vn 0.0000 0.0000 -1.0000
vn -0.0000 -0.9999 0.0139
vn 0.0000 0.9999 -0.0139
vn -0.0000 0.0139 0.9999
vn 0.0000 -0.0139 -0.9999
vn -0.2051 0.1278 0.9704
vn 0.2051 -0.1278 -0.9704
vn 0.9786 0.0461 0.2008
vn -0.9786 -0.0461 -0.2008
vn 0.0191 -0.9907 0.1345
vn -0.0000 -1.0000 -0.0000
vn 0.0365 -0.9864 -0.1603
vn -0.0365 0.9864 0.1603
vn 0.9871 0.0106 0.1596
vn -0.9871 -0.0106 -0.1596
vn 0.1558 0.1640 -0.9741
vn 0.9997 0.0000 0.0236
vn -0.0236 0.0000 0.9997
vn -0.9997 -0.0000 -0.0236
vn 0.0236 0.0000 -0.9997
vn -0.0881 -0.0012 0.9961
vn -0.0886 -0.0001 0.9961
vn -0.9961 0.0006 -0.0881
usemtl Material.002
s off
f 30/1/1 29/2/1 28/3/1
f 28/3/1 29/2/1 22/4/1
f 41/5/2 40/6/2 39/7/2
f 63/8/3 68/9/3 69/10/3
f 76/11/4 59/12/4 75/13/4
f 60/14/5 70/15/5 65/16/5
f 61/17/6 69/18/6 68/19/6
f 74/20/7 69/18/7 61/17/7
f 59/12/5 63/8/5 62/21/5
f 61/17/8 68/19/8 75/22/8
f 71/23/7 74/20/7 64/24/7
f 61/17/9 60/14/9 64/24/9
f 70/15/3 69/10/3 58/25/3
f 63/8/3 69/10/3 70/15/3
f 64/24/9 72/26/9 71/23/9
f 70/15/10 58/25/10 67/27/10
f 73/28/9 62/21/9 61/17/9
f 75/22/11 73/28/11 61/17/11
f 72/26/9 65/16/9 71/23/9
f 58/25/12 66/29/12 67/27/12
f 6/30/4 8/31/4 7/32/4
f 54/33/13 5/34/13 6/30/13
f 54/33/14 7/32/14 55/35/14
f 55/35/15 8/36/15 10/37/15
f 10/38/16 1/39/16 4/40/16
f 2/41/13 9/42/13 54/33/13
f 2/41/14 55/35/14 3/43/14
f 3/43/15 10/37/15 4/44/15
f 5/34/16 10/38/16 8/45/16
f 13/46/17 11/47/17 12/48/17
f 16/49/18 18/50/18 17/51/18
f 57/52/13 15/53/13 16/49/13
f 57/52/19 17/51/19 56/54/19
f 20/55/15 17/51/15 18/56/15
f 20/57/20 11/58/20 14/59/20
f 12/60/13 19/61/13 57/52/13
f 56/54/19 12/60/19 57/52/19
f 14/62/15 56/54/15 20/55/15
f 18/63/20 19/61/20 20/57/20
f 29/64/21 21/65/21 22/66/21
f 26/67/22 24/68/22 27/69/22
f 30/1/23 24/70/23 25/71/23
f 30/1/1 26/67/1 29/2/1
f 51/72/24 26/67/24 27/73/24
f 53/74/25 23/75/25 51/76/25
f 21/77/23 28/3/23 22/4/23
f 53/74/23 30/1/23 28/3/23
f 51/76/25 24/70/25 53/74/25
f 3/78/26 1/79/26 2/80/26
f 29/2/24 51/72/24 23/81/24
f 33/82/27 31/83/27 32/84/27
f 35/85/28 37/86/28 36/87/28
f 41/5/29 35/88/29 36/87/29
f 41/5/2 37/86/2 40/6/2
f 52/89/30 37/86/30 38/90/30
f 50/91/31 34/92/31 52/93/31
f 31/94/29 39/7/29 32/95/29
f 50/91/29 41/5/29 39/7/29
f 33/96/2 39/7/2 40/6/2
f 34/97/30 40/6/30 52/89/30
f 35/88/31 52/93/31 38/98/31
f 42/99/26 44/100/26 45/101/26
f 47/102/4 49/103/4 48/104/4
f 43/105/32 46/106/32 47/102/32
f 44/107/33 47/102/33 48/104/33
f 44/107/34 49/108/34 45/109/34
f 49/110/35 42/111/35 45/112/35
f 72/26/9 60/14/9 65/16/9
f 69/18/7 74/20/7 58/113/7
f 73/28/9 59/12/9 62/21/9
f 74/20/7 66/114/7 58/113/7
f 65/115/26 67/116/26 74/117/26
f 59/12/36 76/11/36 63/8/36
f 60/14/5 62/21/5 70/15/5
f 62/21/5 63/8/5 70/15/5
f 64/24/7 74/20/7 61/17/7
f 65/16/37 70/15/37 67/27/37
f 74/117/26 67/116/26 66/118/26
f 75/22/11 59/12/11 73/28/11
f 63/8/38 76/11/38 68/9/38
f 61/17/9 62/21/9 60/14/9
f 64/24/9 60/14/9 72/26/9
f 68/119/4 76/11/4 75/13/4
f 71/120/26 65/115/26 74/117/26
f 6/30/4 5/121/4 8/31/4
f 54/33/13 9/42/13 5/34/13
f 54/33/14 6/30/14 7/32/14
f 55/35/15 7/32/15 8/36/15
f 10/38/16 9/42/16 1/39/16
f 2/41/13 1/39/13 9/42/13
f 2/41/14 54/33/14 55/35/14
f 3/43/15 55/35/15 10/37/15
f 5/34/16 9/42/16 10/38/16
f 13/46/17 14/122/17 11/47/17
f 16/49/18 15/123/18 18/50/18
f 57/52/13 19/61/13 15/53/13
f 57/52/19 16/49/19 17/51/19
f 20/55/15 56/54/15 17/51/15
f 20/57/20 19/61/20 11/58/20
f 12/60/13 11/58/13 19/61/13
f 56/54/19 13/124/19 12/60/19
f 14/62/15 13/124/15 56/54/15
f 18/63/20 15/53/20 19/61/20
f 29/64/21 23/125/21 21/65/21
f 26/67/22 25/71/22 24/68/22
f 30/1/23 53/74/23 24/70/23
f 30/1/1 25/71/1 26/67/1
f 51/72/24 29/2/24 26/67/24
f 53/74/25 21/77/25 23/75/25
f 21/77/23 53/74/23 28/3/23
f 51/76/25 27/126/25 24/70/25
f 3/78/26 4/127/26 1/79/26
f 33/82/27 34/128/27 31/83/27
f 35/85/28 38/129/28 37/86/28
f 41/5/29 50/91/29 35/88/29
f 41/5/2 36/87/2 37/86/2
f 52/89/30 40/6/30 37/86/30
f 50/91/31 31/94/31 34/92/31
f 31/94/29 50/91/29 39/7/29
f 33/96/2 32/95/2 39/7/2
f 34/97/30 33/96/30 40/6/30
f 35/88/31 50/91/31 52/93/31
f 42/99/26 43/130/26 44/100/26
f 47/102/4 46/131/4 49/103/4
f 43/105/32 42/111/32 46/106/32
f 44/107/33 43/105/33 47/102/33
f 44/107/34 48/104/34 49/108/34
f 49/110/35 46/106/35 42/111/35
