# Blender v2.79 (sub 0) OBJ File: 'SteveAnim.blend'
# www.blender.org
mtllib player_000001.mtl
o Character_Cube.001
v 0.235142 -0.000847 -0.155071
v 0.235142 -0.000847 0.093071
v -0.013000 0.743578 0.093070
v -0.013000 0.743578 -0.155071
v 0.235142 0.743578 -0.155070
v -0.013000 -0.000847 -0.155071
v -0.013000 -0.000847 -0.155071
v -0.013000 -0.000847 0.093071
v -0.013001 0.743578 0.093071
v -0.261142 0.743578 0.093071
v -0.261142 0.743578 -0.155071
v -0.013000 0.743578 -0.155070
v -0.261141 -0.000847 -0.155071
v -0.509283 0.811944 0.278099
v -0.261141 1.377523 -0.205935
v -0.261142 1.538868 -0.017409
v -0.509283 1.538867 -0.017409
v -0.261142 0.973289 0.466625
v -0.509283 0.973289 0.466625
v 0.483283 1.488003 -0.155070
v 0.483283 1.488003 0.093071
v 0.235141 1.488003 0.093071
v 0.235142 1.488003 -0.155071
v 0.483283 0.743578 0.093071
v 0.235142 0.743578 0.093071
v 0.235142 1.488003 -0.279142
v 0.235142 1.488003 0.217142
v -0.261142 1.488003 0.217141
v -0.261141 1.488003 -0.279142
v 0.235142 1.984286 -0.279141
v 0.235141 1.984286 0.217142
v -0.261142 1.984286 0.217141
v -0.261142 1.984286 -0.279142
v 0.483283 0.743578 -0.155071
v -0.509283 1.377523 -0.205935
v 0.235142 0.743578 -0.155071
v -0.261142 0.811944 0.278099
v 0.235141 0.743578 0.093071
v -0.013000 -0.000847 0.093070
v -0.261142 -0.000847 0.093071
v 0.235141 1.488003 0.093071
v 0.235141 1.127402 0.093071
v 0.235142 0.743578 0.093071
v -0.261141 0.743578 -0.155071
v -0.261142 0.743578 0.093071
v -0.261142 1.488003 -0.155071
v 0.235142 0.743578 -0.155071
v 0.235142 1.488003 -0.155070
v -0.261142 1.488003 0.093071
vt 0.437500 0.000000
vt 0.500000 0.000000
vt 0.437500 0.187500
vt 0.187500 0.500000
vt 0.250000 0.500000
vt 0.187500 0.687500
vt 0.312500 0.687500
vt 0.250000 0.687500
vt 0.250000 0.500000
vt 0.437500 0.687500
vt 0.437500 0.750000
vt 0.436798 0.608054
vt 0.312500 0.500000
vt 0.437500 0.500000
vt 0.500000 0.687500
vt 0.625000 0.500000
vt 0.625000 0.687500
vt 0.500000 0.500000
vt 0.375000 0.250000
vt 0.312500 0.187500
vt 0.375000 0.187500
vt 0.312500 0.000000
vt 0.250000 0.187500
vt 0.250000 0.000000
vt 0.375000 0.000000
vt 0.125000 0.750000
vt 0.187500 0.687500
vt 0.187500 0.750000
vt 0.500000 0.187500
vt 0.125000 0.750000
vt 0.062500 0.687500
vt 0.125000 0.687500
vt 0.062500 0.500000
vt 0.000000 0.687500
vt 0.000000 0.500000
vt 0.125000 0.500000
vt 0.750000 0.687500
vt 0.812500 0.750000
vt 0.750000 0.750000
vt 0.250000 0.687500
vt 0.750000 0.687500
vt 0.687500 0.750000
vt 0.687500 0.687500
vt 0.750000 0.500000
vt 0.812500 0.687500
vt 0.687500 0.500000
vt 0.625000 0.250000
vt 0.687500 0.187500
vt 0.687500 0.250000
vt 0.625000 0.687500
vt 0.875000 0.687500
vt 0.812500 0.500000
vt 0.875000 0.500000
vt 0.625000 0.500000
vt 0.625000 0.250000
vt 0.562500 0.187500
vt 0.625000 0.187500
vt 0.625000 0.000000
vt 0.687500 0.187500
vt 0.562500 0.000000
vt 0.500000 0.187500
vt 0.750000 0.187500
vt 0.687500 0.000000
vt 0.750000 0.000000
vt 0.375000 0.250000
vt 0.437500 0.187500
vt 0.437500 0.250000
vt 0.375000 1.000000
vt 0.250000 0.875000
vt 0.250000 1.000000
vt 0.250000 0.875000
vt 0.125000 1.000000
vt 0.125000 0.875000
vt 0.250000 0.750000
vt 0.375000 0.875000
vt 0.125000 0.750000
vt 0.000000 0.875000
vt 0.000000 0.750000
vt 0.500000 0.875000
vt 0.375000 0.750000
vt 0.500000 0.750000
vt 0.562500 0.750000
vt 0.437500 0.750000
vt 0.437500 0.687500
vt 0.312500 0.750000
vt 0.562500 0.687500
vt 0.312500 0.250000
vt 0.125000 0.687500
vt 0.062500 0.750000
vt 0.812500 0.687500
vt 0.750000 0.750000
vt 0.625000 0.187500
vt 0.562500 0.250000
vt 0.500000 0.000000
vt 0.375000 0.187500
vt 0.375000 0.875000
vt 0.250000 1.000000
vn 0.0000 0.0000 -1.0000
vn -1.0000 -0.0000 -0.0000
vn 0.0000 1.0000 0.0000
vn -0.0000 -0.0000 1.0000
vn 1.0000 0.0000 0.0000
vn 0.0000 -1.0000 0.0000
vn 0.0000 -0.7598 0.6502
vn -0.0000 0.7598 -0.6502
vn -0.0000 0.6502 0.7598
vn 0.0000 -0.6502 -0.7598
usemtl Material.002
s off
f 1/1/1 6/2/1 5/3/1
f 7/4/1 13/5/1 12/6/1
f 49/7/2 46/8/2 44/9/2
f 49/7/3 41/10/3 48/11/3
f 42/12/4 45/13/4 43/14/4
f 48/15/1 44/16/1 46/17/1
f 41/10/4 49/7/4 42/12/4
f 47/18/1 44/16/1 48/15/1
f 49/7/2 44/9/2 45/13/2
f 5/19/3 3/20/3 38/21/3
f 39/22/2 4/23/2 6/24/2
f 38/21/4 3/20/4 39/22/4
f 2/25/5 5/3/5 38/21/5
f 40/26/6 7/27/6 8/28/6
f 2/25/4 38/21/4 39/22/4
f 5/3/1 6/2/1 4/29/1
f 12/30/3 10/31/3 9/32/3
f 40/33/2 11/34/2 13/35/2
f 9/32/4 10/31/4 40/33/4
f 8/36/5 12/6/5 9/32/5
f 14/37/7 18/38/7 19/39/7
f 9/32/4 40/33/4 8/36/4
f 12/6/1 13/5/1 11/40/1
f 16/41/8 35/42/8 17/43/8
f 18/44/5 15/45/5 16/41/5
f 19/46/9 16/41/9 17/43/9
f 25/47/6 34/48/6 24/49/6
f 19/46/2 17/43/2 35/50/2
f 35/51/10 37/52/10 14/53/10
f 19/46/2 35/50/2 14/54/2
f 35/51/10 15/45/10 37/52/10
f 20/55/3 22/56/3 21/57/3
f 24/58/5 20/59/5 21/57/5
f 25/60/4 21/57/4 22/56/4
f 23/61/2 25/60/2 22/56/2
f 23/62/1 34/63/1 36/64/1
f 39/65/6 1/66/6 2/67/6
f 26/68/6 28/69/6 29/70/6
f 31/71/3 33/72/3 32/73/3
f 27/74/5 30/75/5 31/71/5
f 28/76/4 31/71/4 32/73/4
f 28/76/2 33/77/2 29/78/2
f 33/79/1 26/80/1 29/81/1
f 47/18/5 42/12/5 43/14/5
f 48/15/5 41/10/5 42/12/5
f 43/82/6 45/83/6 44/84/6
f 42/12/4 49/7/4 45/13/4
f 48/15/5 42/12/5 47/18/5
f 46/85/3 49/7/3 48/11/3
f 47/86/6 43/82/6 44/84/6
f 5/19/3 4/87/3 3/20/3
f 39/22/2 3/20/2 4/23/2
f 2/25/5 1/1/5 5/3/5
f 40/26/6 13/88/6 7/27/6
f 12/30/3 11/89/3 10/31/3
f 40/33/2 10/31/2 11/34/2
f 8/36/5 7/4/5 12/6/5
f 14/37/7 37/90/7 18/38/7
f 16/41/8 15/91/8 35/42/8
f 18/44/5 37/52/5 15/45/5
f 19/46/9 18/44/9 16/41/9
f 25/47/6 36/92/6 34/48/6
f 20/55/3 23/93/3 22/56/3
f 24/58/5 34/63/5 20/59/5
f 25/60/4 24/58/4 21/57/4
f 23/61/2 36/94/2 25/60/2
f 23/62/1 20/59/1 34/63/1
f 39/65/6 6/95/6 1/66/6
f 26/68/6 27/96/6 28/69/6
f 31/71/3 30/97/3 33/72/3
f 27/74/5 26/80/5 30/75/5
f 28/76/4 27/74/4 31/71/4
f 28/76/2 32/73/2 33/77/2
f 33/79/1 30/75/1 26/80/1
