# Blender v2.92.0 OBJ File: 'Oak Logs'
# www.blender.org
mtllib oak_log.mtl
o Oak_Log
v -1.000000 -1.000000 1.000000
v -1.000000 -1.000000 -1.000000
v 1.000000 -1.000000 -1.000000
v 1.000000 -1.000000 1.000000
v -1.000000 1.000000 1.000000
v -1.000000 1.000000 -1.000000
v 1.000000 1.000000 -1.000000
v 1.000000 1.000000 1.000000
vt 0.000100 0.000100
vt 0.999900 0.999900
vt 0.000100 0.999900
vt 0.999900 0.999900
vt 0.000100 0.000100
vt 0.999900 0.000100
vt 0.999900 0.000100
vt 0.000100 0.999900
vt 0.999900 0.000100
vt 0.999900 0.999900
vt 0.000100 0.999900
vt 0.999900 0.000100
vt 0.999900 0.999900
vt 0.000100 0.999900
vt 0.000100 0.999900
vt 0.999900 0.000100
vt 0.999900 0.999900
vt 0.000100 0.000100
vt 0.000100 0.000100
vt 0.000100 0.000100
vn 0.0000 -1.0000 0.0000
vn 0.0000 1.0000 0.0000
vn -1.0000 0.0000 0.0000
vn 0.0000 0.0000 -1.0000
vn 1.0000 0.0000 0.0000
vn 0.0000 0.0000 1.0000
usemtl oak_log_top
s off
f 2/1/1 4/2/1 1/3/1
f 7/4/2 5/5/2 8/6/2
f 2/1/1 3/7/1 4/2/1
f 7/4/2 6/8/2 5/5/2
usemtl oak_log_side
f 6/8/3 1/9/3 5/10/3
f 7/11/4 2/12/4 6/13/4
f 8/14/5 3/7/5 7/4/5
f 5/15/6 4/16/6 8/17/6
f 6/8/3 2/1/3 1/9/3
f 7/11/4 3/18/4 2/12/4
f 8/14/5 4/19/5 3/7/5
f 5/15/6 1/20/6 4/16/6
