# Blender v2.79 (sub 0) OBJ File: 'WalkBraçoQuebando2.blend'
# www.blender.org
mtllib arm_000004.mtl
o Cube
v 0.015228 -0.025613 -0.394560
v 0.094284 -0.236401 -0.290526
v -0.139066 -0.320002 -0.282591
v -0.069062 0.273208 0.274951
v -0.302412 0.189607 0.282886
v -0.218121 -0.109214 -0.386625
v 0.009993 0.062420 0.378985
v -0.223356 -0.021181 0.386920
vt 0.751502 0.499674
vt 0.812635 0.499637
vt 0.812536 0.687954
vt 0.689446 0.688008
vt 0.689443 0.499690
vt 0.750576 0.499620
vt 0.751403 0.687991
vt 0.750124 0.749927
vt 0.750233 0.687684
vt 0.812333 0.749805
vt 0.751403 0.687991
vt 0.688417 0.500380
vt 0.812536 0.687954
vt 0.812635 0.499637
vt 0.812392 0.687689
vt 0.687571 0.750085
vt 0.687690 0.750029
vt 0.688596 0.687376
vn -0.9409 -0.3371 0.0320
vn -0.3188 0.8499 -0.4195
vn -0.1142 0.4049 0.9072
vn 0.3188 -0.8499 0.4195
vn 0.9409 0.3371 -0.0320
vn 0.1142 -0.4049 -0.9072
usemtl Textura
s off
f 8/1/1 5/2/1 6/3/1
f 6/4/2 5/5/2 4/6/2
f 8/1/1 6/3/1 3/7/1
f 5/8/3 8/9/3 4/10/3
f 1/11/2 6/4/2 4/6/2
f 3/7/4 7/12/4 8/1/4
f 2/13/5 4/6/5 7/14/5
f 4/10/3 8/9/3 7/15/3
f 6/4/6 2/16/6 3/17/6
f 1/11/6 2/16/6 6/4/6
f 3/7/4 2/18/4 7/12/4
f 2/13/5 1/11/5 4/6/5
