# Blender v2.79 (sub 0) OBJ File: 'WalkBraçoQuebando2.blend'
# www.blender.org
mtllib arm_000021.mtl
o Cube
v 0.363685 -0.387037 -0.429254
v 0.318925 -0.575788 -0.274743
v 0.075802 -0.528516 -0.287426
v 0.422603 0.070526 0.146775
v 0.179481 0.117798 0.134092
v 0.120563 -0.339765 -0.441936
v 0.377843 -0.118225 0.301286
v 0.134720 -0.070953 0.288603
vt 0.751502 0.499674
vt 0.812635 0.499637
vt 0.812536 0.687954
vt 0.689446 0.688008
vt 0.689443 0.499690
vt 0.750576 0.499620
vt 0.751403 0.687991
vt 0.750124 0.749927
vt 0.750233 0.687684
vt 0.812333 0.749805
vt 0.751403 0.687991
vt 0.688417 0.500380
vt 0.812536 0.687954
vt 0.812635 0.499637
vt 0.812392 0.687689
vt 0.687571 0.750085
vt 0.687690 0.750029
vt 0.688596 0.687376
vn -0.9803 0.1906 -0.0511
vn 0.1805 0.7611 -0.6230
vn 0.0798 0.6200 0.7805
vn -0.1805 -0.7611 0.6230
vn 0.9803 -0.1906 0.0511
vn -0.0798 -0.6200 -0.7805
usemtl Textura
s off
f 8/1/1 5/2/1 6/3/1
f 6/4/2 5/5/2 4/6/2
f 8/1/1 6/3/1 3/7/1
f 5/8/3 8/9/3 4/10/3
f 1/11/2 6/4/2 4/6/2
f 3/7/4 7/12/4 8/1/4
f 2/13/5 4/6/5 7/14/5
f 4/10/3 8/9/3 7/15/3
f 6/4/6 2/16/6 3/17/6
f 1/11/6 2/16/6 6/4/6
f 3/7/4 2/18/4 7/12/4
f 2/13/5 1/11/5 4/6/5
