# Blender v2.79 (sub 0) OBJ File: 'WalkBraçoQuebando2.blend'
# www.blender.org
mtllib arm_000020.mtl
o Cube
v 0.217748 -0.493975 -0.487292
v 0.185541 -0.665808 -0.311394
v -0.029360 -0.559916 -0.247297
v 0.573406 -0.065167 -0.003272
v 0.358505 0.040725 0.060825
v 0.002847 -0.388083 -0.423195
v 0.541199 -0.237000 0.172626
v 0.326298 -0.131109 0.236723
vt 0.751502 0.499674
vt 0.812635 0.499637
vt 0.812536 0.687954
vt 0.689446 0.688008
vt 0.689443 0.499690
vt 0.750576 0.499620
vt 0.751403 0.687991
vt 0.750124 0.749927
vt 0.750233 0.687684
vt 0.812333 0.749805
vt 0.751403 0.687991
vt 0.688417 0.500380
vt 0.812536 0.687954
vt 0.812635 0.499637
vt 0.812392 0.687689
vt 0.687571 0.750085
vt 0.687690 0.750029
vt 0.688596 0.687376
vn -0.8665 0.4270 0.2585
vn 0.1299 0.6929 -0.7093
vn 0.4819 0.5810 0.6559
vn -0.1299 -0.6929 0.7093
vn 0.8665 -0.4270 -0.2585
vn -0.4819 -0.5810 -0.6559
usemtl Textura
s off
f 8/1/1 5/2/1 6/3/1
f 6/4/2 5/5/2 4/6/2
f 8/1/1 6/3/1 3/7/1
f 5/8/3 8/9/3 4/10/3
f 1/11/2 6/4/2 4/6/2
f 3/7/4 7/12/4 8/1/4
f 2/13/5 4/6/5 7/14/5
f 4/10/3 8/9/3 7/15/3
f 6/4/6 2/16/6 3/17/6
f 1/11/6 2/16/6 6/4/6
f 3/7/4 2/18/4 7/12/4
f 2/13/5 1/11/5 4/6/5
