# Blender v2.79 (sub 0) OBJ File: 'SteveAnim.blend'
# www.blender.org
mtllib player_000001.mtl
o Character_Cube.001
v 0.235142 -0.000847 -0.155071
v 0.235142 -0.000847 0.093071
v -0.013000 0.743578 0.093070
v -0.013000 0.743578 -0.155071
v 0.235142 0.743578 -0.155070
v -0.013000 -0.000847 -0.155071
v -0.013000 -0.000847 -0.155071
v -0.013000 -0.000847 0.093071
v -0.013001 0.743578 0.093071
v -0.261142 0.743578 0.093071
v -0.261142 0.743578 -0.155071
v -0.013000 0.743578 -0.155070
v -0.261141 -0.000847 -0.155071
v -0.130281 1.416244 0.573854
v -0.319088 1.220834 -0.162290
v -0.378670 1.457004 -0.209700
v -0.581179 1.434340 -0.068100
v 0.012646 1.675079 0.384844
v -0.189863 1.652414 0.526444
v 0.478936 1.487183 -0.174677
v 0.488700 1.486958 0.073272
v 0.240758 1.488816 0.083038
v 0.230993 1.489041 -0.164911
v 0.483104 0.742554 0.072818
v 0.235162 0.744412 0.082584
v 0.225013 1.488003 -0.288873
v 0.244873 1.488003 0.207013
v -0.251013 1.488003 0.226873
v -0.270873 1.488003 -0.269013
v 0.225013 1.984286 -0.288873
v 0.244873 1.984286 0.207013
v -0.251013 1.984286 0.226873
v -0.270873 1.984286 -0.269013
v 0.473339 0.742779 -0.175132
v -0.521597 1.198169 -0.020690
v 0.225397 0.744637 -0.165366
v 0.072228 1.438908 0.432255
v 0.235141 0.743578 0.093071
v -0.013000 -0.000847 0.093070
v -0.261142 -0.000847 0.093071
v 0.239908 1.488003 0.083042
v 0.239908 1.127402 0.083041
v 0.239908 0.743578 0.083041
v -0.265908 0.743578 -0.145041
v -0.255978 0.743578 0.102901
v -0.265908 1.488003 -0.145041
v 0.229978 0.743578 -0.164902
v 0.229978 1.488003 -0.164901
v -0.255978 1.488003 0.102901
vt 0.437500 0.000000
vt 0.500000 0.000000
vt 0.437500 0.187500
vt 0.187500 0.500000
vt 0.250000 0.500000
vt 0.187500 0.687500
vt 0.312500 0.687500
vt 0.250000 0.687500
vt 0.250000 0.500000
vt 0.437500 0.687500
vt 0.437500 0.750000
vt 0.436798 0.608054
vt 0.312500 0.500000
vt 0.437500 0.500000
vt 0.500000 0.687500
vt 0.625000 0.500000
vt 0.625000 0.687500
vt 0.500000 0.500000
vt 0.375000 0.250000
vt 0.312500 0.187500
vt 0.375000 0.187500
vt 0.312500 0.000000
vt 0.250000 0.187500
vt 0.250000 0.000000
vt 0.375000 0.000000
vt 0.125000 0.750000
vt 0.187500 0.687500
vt 0.187500 0.750000
vt 0.500000 0.187500
vt 0.125000 0.750000
vt 0.062500 0.687500
vt 0.125000 0.687500
vt 0.062500 0.500000
vt 0.000000 0.687500
vt 0.000000 0.500000
vt 0.125000 0.500000
vt 0.750000 0.687500
vt 0.812500 0.750000
vt 0.750000 0.750000
vt 0.250000 0.687500
vt 0.750000 0.687500
vt 0.687500 0.750000
vt 0.687500 0.687500
vt 0.750000 0.500000
vt 0.812500 0.687500
vt 0.687500 0.500000
vt 0.625000 0.250000
vt 0.687500 0.187500
vt 0.687500 0.250000
vt 0.625000 0.687500
vt 0.875000 0.687500
vt 0.812500 0.500000
vt 0.875000 0.500000
vt 0.625000 0.500000
vt 0.625000 0.250000
vt 0.562500 0.187500
vt 0.625000 0.187500
vt 0.625000 0.000000
vt 0.687500 0.187500
vt 0.562500 0.000000
vt 0.500000 0.187500
vt 0.750000 0.187500
vt 0.687500 0.000000
vt 0.750000 0.000000
vt 0.375000 0.250000
vt 0.437500 0.187500
vt 0.437500 0.250000
vt 0.375000 1.000000
vt 0.250000 0.875000
vt 0.250000 1.000000
vt 0.250000 0.875000
vt 0.125000 1.000000
vt 0.125000 0.875000
vt 0.250000 0.750000
vt 0.375000 0.875000
vt 0.125000 0.750000
vt 0.000000 0.875000
vt 0.000000 0.750000
vt 0.500000 0.875000
vt 0.375000 0.750000
vt 0.500000 0.750000
vt 0.562500 0.750000
vt 0.437500 0.750000
vt 0.437500 0.687500
vt 0.312500 0.750000
vt 0.562500 0.687500
vt 0.312500 0.250000
vt 0.125000 0.687500
vt 0.062500 0.750000
vt 0.812500 0.687500
vt 0.750000 0.750000
vt 0.625000 0.187500
vt 0.562500 0.250000
vt 0.500000 0.000000
vt 0.375000 0.187500
vt 0.375000 0.875000
vt 0.250000 1.000000
vn 0.0000 0.0000 -1.0000
vn -0.9992 -0.0000 0.0400
vn 0.0000 1.0000 -0.0000
vn 0.0400 -0.0000 0.9992
vn -0.0400 0.0000 -0.9992
vn -1.0000 -0.0000 -0.0000
vn -0.0000 -0.0000 1.0000
vn 1.0000 0.0000 0.0000
vn 0.0000 -1.0000 0.0000
vn 0.5257 0.2929 0.7987
vn -0.5257 -0.2929 -0.7987
vn 0.8161 0.0913 -0.5706
vn -0.2401 0.9518 -0.1911
vn -0.0075 -1.0000 -0.0006
vn -0.8161 -0.0913 0.5706
vn 0.2401 -0.9518 0.1911
vn 0.0075 1.0000 0.0006
vn 0.9992 -0.0075 -0.0394
vn 0.0394 -0.0009 0.9992
vn -0.9992 0.0075 0.0394
vn -0.0394 0.0009 -0.9992
vn 0.9992 0.0000 -0.0400
usemtl Material.002
s off
f 1/1/1 6/2/1 5/3/1
f 7/4/1 13/5/1 12/6/1
f 49/7/2 46/8/2 44/9/2
f 49/7/3 41/10/3 48/11/3
f 42/12/4 45/13/4 43/14/4
f 48/15/5 44/16/5 46/17/5
f 41/10/4 49/7/4 42/12/4
f 47/18/5 44/16/5 48/15/5
f 49/7/2 44/9/2 45/13/2
f 5/19/3 3/20/3 38/21/3
f 39/22/6 4/23/6 6/24/6
f 38/21/7 3/20/7 39/22/7
f 2/25/8 5/3/8 38/21/8
f 40/26/9 7/27/9 8/28/9
f 2/25/7 38/21/7 39/22/7
f 5/3/1 6/2/1 4/29/1
f 12/30/3 10/31/3 9/32/3
f 40/33/6 11/34/6 13/35/6
f 9/32/7 10/31/7 40/33/7
f 8/36/8 12/6/8 9/32/8
f 14/37/10 18/38/10 19/39/10
f 9/32/7 40/33/7 8/36/7
f 12/6/1 13/5/1 11/40/1
f 16/41/11 35/42/11 17/43/11
f 18/44/12 15/45/12 16/41/12
f 19/46/13 16/41/13 17/43/13
f 25/47/14 34/48/14 24/49/14
f 19/46/15 17/43/15 35/50/15
f 35/51/16 37/52/16 14/53/16
f 19/46/15 35/50/15 14/54/15
f 35/51/16 15/45/16 37/52/16
f 20/55/17 22/56/17 21/57/17
f 24/58/18 20/59/18 21/57/18
f 25/60/19 21/57/19 22/56/19
f 23/61/20 25/60/20 22/56/20
f 23/62/21 34/63/21 36/64/21
f 39/65/9 1/66/9 2/67/9
f 26/68/9 28/69/9 29/70/9
f 31/71/3 33/72/3 32/73/3
f 27/74/22 30/75/22 31/71/22
f 28/76/4 31/71/4 32/73/4
f 28/76/2 33/77/2 29/78/2
f 33/79/5 26/80/5 29/81/5
f 47/18/22 42/12/22 43/14/22
f 48/15/22 41/10/22 42/12/22
f 43/82/9 45/83/9 44/84/9
f 42/12/4 49/7/4 45/13/4
f 48/15/22 42/12/22 47/18/22
f 46/85/3 49/7/3 48/11/3
f 47/86/9 43/82/9 44/84/9
f 5/19/3 4/87/3 3/20/3
f 39/22/6 3/20/6 4/23/6
f 2/25/8 1/1/8 5/3/8
f 40/26/9 13/88/9 7/27/9
f 12/30/3 11/89/3 10/31/3
f 40/33/6 10/31/6 11/34/6
f 8/36/8 7/4/8 12/6/8
f 14/37/10 37/90/10 18/38/10
f 16/41/11 15/91/11 35/42/11
f 18/44/12 37/52/12 15/45/12
f 19/46/13 18/44/13 16/41/13
f 25/47/14 36/92/14 34/48/14
f 20/55/17 23/93/17 22/56/17
f 24/58/18 34/63/18 20/59/18
f 25/60/19 24/58/19 21/57/19
f 23/61/20 36/94/20 25/60/20
f 23/62/21 20/59/21 34/63/21
f 39/65/9 6/95/9 1/66/9
f 26/68/9 27/96/9 28/69/9
f 31/71/3 30/97/3 33/72/3
f 27/74/22 26/80/22 30/75/22
f 28/76/4 27/74/4 31/71/4
f 28/76/2 32/73/2 33/77/2
f 33/79/5 30/75/5 26/80/5
